<?xml version="1.0" encoding="utf-8"?>
<!-- Generator: Adobe Illustrator 24.0.1, SVG Export Plug-In . SVG Version: 6.00 Build 0)  -->
<svg version="1.1" id="Calque_1" xmlns="http://www.w3.org/2000/svg" xmlns:xlink="http://www.w3.org/1999/xlink" x="0px" y="0px"
	 viewBox="0 0 106 120" style="enable-background:new 0 0 106 120;" xml:space="preserve">
<style type="text/css">
	.st0{fill:#E62F47;}
	.st1{fill:#57AADF;}
</style>
<g>
	<path class="st0" d="M88.6,19.6c-2.9-2.9-6.5-4.4-10.6-4.4H26.7V48H44V31.2h27.2c1.3,0,2.3,0.5,3.2,1.4c0.9,0.9,1.3,2,1.3,3.3v12.3
		c0,1.2-0.4,2.3-1.3,3.2c-0.9,0.9-2,1.3-3.2,1.3l-41.2,0c-8.8,0-16,7.2-16,16h30.5v0H78c4.2,0,7.7-1.5,10.6-4.4
		c2.9-2.9,4.4-6.5,4.4-10.7V30.3C93,26.1,91.5,22.6,88.6,19.6z"/>
	<path class="st1" d="M44,73.2H26.7v32.1c9.6,0,17.3-7.7,17.3-17.3C44,81.8,44,73.2,44,73.2z"/>
</g>
</svg>
